<mxfile host="app.diagrams.net" modified="2022-12-17T15:24:12.999Z" agent="5.0 (Windows NT 10.0; Win64; x64) AppleWebKit/537.36 (KHTML, like Gecko) Chrome/106.0.0.0 Safari/537.36" etag="VmSLzKqP1Px5QC-5VnHI" version="20.7.2" type="github">
  <diagram id="1aEEClQ9U-ESjYVgXYmn" name="第 1 页">
    <mxGraphModel dx="2234" dy="764" grid="0" gridSize="10" guides="1" tooltips="1" connect="1" arrows="1" fold="1" page="0" pageScale="1" pageWidth="827" pageHeight="1169" math="0" shadow="0">
      <root>
        <mxCell id="0" />
        <mxCell id="1" parent="0" />
        <mxCell id="aQ2xhZKoIx8xROYaaDXK-5" value="" style="edgeStyle=none;curved=1;rounded=0;orthogonalLoop=1;jettySize=auto;html=1;fontSize=12;endArrow=open;startSize=14;endSize=14;sourcePerimeterSpacing=8;targetPerimeterSpacing=8;" parent="1" source="_scqceFtBJjCkE2vxEVa-1" target="aQ2xhZKoIx8xROYaaDXK-4" edge="1">
          <mxGeometry relative="1" as="geometry" />
        </mxCell>
        <mxCell id="aQ2xhZKoIx8xROYaaDXK-7" value="" style="edgeStyle=none;curved=1;rounded=0;orthogonalLoop=1;jettySize=auto;html=1;fontSize=12;endArrow=open;startSize=14;endSize=14;sourcePerimeterSpacing=8;targetPerimeterSpacing=8;" parent="1" source="_scqceFtBJjCkE2vxEVa-1" target="aQ2xhZKoIx8xROYaaDXK-6" edge="1">
          <mxGeometry relative="1" as="geometry" />
        </mxCell>
        <mxCell id="_scqceFtBJjCkE2vxEVa-1" value="resign&amp;nbsp;" style="whiteSpace=wrap;html=1;fontSize=16;" parent="1" vertex="1">
          <mxGeometry x="4" y="64" width="120" height="56" as="geometry" />
        </mxCell>
        <mxCell id="wWD5kf36xDMMppYPNfPV-2" style="edgeStyle=orthogonalEdgeStyle;rounded=0;orthogonalLoop=1;jettySize=auto;html=1;" edge="1" parent="1" source="aQ2xhZKoIx8xROYaaDXK-4" target="wWD5kf36xDMMppYPNfPV-1">
          <mxGeometry relative="1" as="geometry">
            <Array as="points">
              <mxPoint x="-87" y="250" />
              <mxPoint x="-409" y="250" />
            </Array>
          </mxGeometry>
        </mxCell>
        <mxCell id="wWD5kf36xDMMppYPNfPV-4" style="edgeStyle=orthogonalEdgeStyle;rounded=0;orthogonalLoop=1;jettySize=auto;html=1;exitX=0.5;exitY=1;exitDx=0;exitDy=0;" edge="1" parent="1" source="aQ2xhZKoIx8xROYaaDXK-4" target="wWD5kf36xDMMppYPNfPV-3">
          <mxGeometry relative="1" as="geometry" />
        </mxCell>
        <mxCell id="aQ2xhZKoIx8xROYaaDXK-4" value="问题" style="whiteSpace=wrap;html=1;fontSize=16;" parent="1" vertex="1">
          <mxGeometry x="-147" y="169" width="120" height="48" as="geometry" />
        </mxCell>
        <mxCell id="aQ2xhZKoIx8xROYaaDXK-6" value="行动" style="whiteSpace=wrap;html=1;fontSize=16;" parent="1" vertex="1">
          <mxGeometry x="184" y="166" width="138" height="49" as="geometry" />
        </mxCell>
        <mxCell id="wWD5kf36xDMMppYPNfPV-1" value="你为什么离职？" style="whiteSpace=wrap;html=1;fontSize=16;" vertex="1" parent="1">
          <mxGeometry x="-464" y="304" width="120" height="48" as="geometry" />
        </mxCell>
        <mxCell id="wWD5kf36xDMMppYPNfPV-3" value="交接" style="whiteSpace=wrap;html=1;fontSize=16;" vertex="1" parent="1">
          <mxGeometry x="-236" y="304" width="120" height="48" as="geometry" />
        </mxCell>
      </root>
    </mxGraphModel>
  </diagram>
</mxfile>
